Coordinates
version=1
nRows=35
nColumns=38
inDegrees=no

Units are S.I. units (second, meters, Newtons, ...)
If the header above contains a line with 'inDegrees', this indicates whether rotational values are in degrees (yes) or radians (no).

endheader
time	pelvis_tilt	pelvis_list	pelvis_rotation	pelvis_tx	pelvis_ty	pelvis_tz	hip_flexion_r	hip_adduction_r	hip_rotation_r	knee_angle_r	ankle_angle_r	subtalar_angle_r	mtp_angle_r	hip_flexion_l	hip_adduction_l	hip_rotation_l	knee_angle_l	ankle_angle_l	subtalar_angle_l	mtp_angle_l	lumbar_extension	lumbar_bending	lumbar_rotation	arm_flex_r	arm_add_r	arm_rot_r	elbow_flex_r	pro_sup_r	wrist_flex_r	wrist_dev_r	arm_flex_l	arm_add_l	arm_rot_l	elbow_flex_l	pro_sup_l	wrist_flex_l	wrist_dev_l
15	0.452683	1.37953	1.20432	0.655757	0.208411	0.799265	0.935427	-0.0360273	-0.0967299	1.17186	-0.1976	0	0	0.905994	-0.153922	0.0438429	1.08135	-0.150945	0	0	-0.693808	0.15362	-0.0108853	1.07009	-0.701406	0.710001	0.930257	0.452756	0	0	0.889586	-0.73207	0.483679	1.03951	0.651399	0	0
15.01	0.455712	1.37543	1.19962	0.655826	0.206164	0.794593	0.952612	-0.0345302	-0.0960772	1.18775	-0.195039	0	0	0.924668	-0.156324	0.0464959	1.10147	-0.145593	0	0	-0.703672	0.152896	-0.00489894	1.0811	-0.705392	0.70955	0.936661	0.444898	0	0	0.906655	-0.732571	0.490915	1.0416	0.64096	0	0
15.02	0.457418	1.37166	1.19634	0.655904	0.203963	0.789968	0.969445	-0.0329072	-0.0946883	1.20337	-0.192575	0	0	0.942629	-0.158253	0.0489638	1.12079	-0.140386	0	0	-0.713451	0.151785	0.00122384	1.0915	-0.709928	0.708738	0.943766	0.436856	0	0	0.92452	-0.732044	0.499124	1.0429	0.63022	0	0
15.03	0.459034	1.36982	1.19326	0.656065	0.201856	0.785593	0.983903	-0.0315647	-0.0930304	1.21835	-0.189953	0	0	0.958015	-0.159828	0.0506815	1.13908	-0.135404	0	0	-0.725009	0.149677	0.00752742	1.10094	-0.715091	0.707036	0.951508	0.429245	0	0	0.94439	-0.730391	0.50917	1.04323	0.619865	0	0
15.04	0.457029	1.36269	1.19362	0.655708	0.200454	0.780887	1.00226	-0.0306872	-0.0938375	1.23229	-0.186409	0	0	0.978414	-0.161662	0.0531376	1.15795	-0.128824	0	0	-0.730062	0.149335	0.0163958	1.10544	-0.723962	0.70273	0.961873	0.422154	0	0	0.960487	-0.72357	0.516596	1.04258	0.610362	0	0
15.05	0.454053	1.36137	1.19531	0.655919	0.198438	0.776603	1.01631	-0.0297887	-0.0913368	1.24667	-0.183984	0	0	0.993376	-0.162711	0.0542614	1.17517	-0.125236	0	0	-0.740609	0.145918	0.0225207	1.11415	-0.729695	0.701957	0.96852	0.419481	0	0	0.982045	-0.719698	0.52845	1.04063	0.605079	0	0
15.06	0.448523	1.35923	1.199	0.656165	0.196347	0.772204	1.03153	-0.0274342	-0.0866085	1.26075	-0.181267	0	0	1.00948	-0.16405	0.0549233	1.19266	-0.121876	0	0	-0.749674	0.141643	0.029547	1.12177	-0.736341	0.700557	0.975408	0.418822	0	0	1.00507	-0.714936	0.543279	1.0376	0.601548	0	0
15.07	0.445246	1.35849	1.20163	0.656254	0.19449	0.767901	1.04505	-0.0278911	-0.0852551	1.27609	-0.17778	0	0	1.02367	-0.164295	0.0557265	1.21014	-0.11793	0	0	-0.759807	0.137909	0.0364905	1.12751	-0.74449	0.697645	0.984207	0.42024	0	0	1.02872	-0.708507	0.559226	1.03388	0.598884	0	0
15.08	0.446932	1.3586	1.19911	0.656357	0.192699	0.763896	1.05637	-0.0270764	-0.0838202	1.28983	-0.174466	0	0	1.03595	-0.165201	0.0568592	1.22649	-0.114367	0	0	-0.771635	0.135048	0.0434678	1.13497	-0.751571	0.696616	0.99273	0.42291	0	0	1.05079	-0.702081	0.572437	1.03077	0.596844	0	0
15.09	0.458542	1.36141	1.1866	0.656617	0.191332	0.760585	1.06201	-0.0252837	-0.0841355	1.30123	-0.170786	0	0	1.04317	-0.168629	0.0561803	1.24115	-0.110899	0	0	-0.787727	0.132443	0.0509474	1.14244	-0.75789	0.694967	1.00194	0.426076	0	0	1.07178	-0.696385	0.583347	1.02982	0.592792	0	0
15.1	0.463931	1.36197	1.18032	0.656712	0.189579	0.756775	1.07188	-0.0243503	-0.0836497	1.3136	-0.168341	0	0	1.054	-0.170089	0.0574873	1.25609	-0.108149	0	0	-0.800446	0.130419	0.0569048	1.15268	-0.762571	0.696184	1.00965	0.427644	0	0	1.09089	-0.691771	0.592179	1.0302	0.586979	0	0
15.11	0.466107	1.36094	1.17727	0.656794	0.187765	0.752697	1.08381	-0.0229668	-0.0819471	1.32604	-0.165871	0	0	1.06711	-0.171149	0.0593569	1.27154	-0.105481	0	0	-0.810898	0.128689	0.0629055	1.1628	-0.767608	0.697513	1.01815	0.42876	0	0	1.10896	-0.686613	0.600304	1.03108	0.580084	0	0
15.12	0.465614	1.35872	1.17685	0.656861	0.185983	0.748514	1.09728	-0.0218254	-0.080298	1.33861	-0.163588	0	0	1.08157	-0.171988	0.0615055	1.28707	-0.103316	0	0	-0.820001	0.126996	0.0683538	1.17314	-0.772407	0.69926	1.02737	0.430227	0	0	1.12596	-0.682616	0.607383	1.03402	0.571246	0	0
15.13	0.463414	1.35585	1.17814	0.656894	0.184253	0.744289	1.11163	-0.0210607	-0.0788424	1.35133	-0.161563	0	0	1.09665	-0.172607	0.0635725	1.30193	-0.101039	0	0	-0.828154	0.125487	0.0730398	1.18429	-0.776552	0.702267	1.03648	0.432887	0	0	1.14183	-0.679848	0.613633	1.03839	0.561719	0	0
15.14	0.460179	1.35245	1.1804	0.656894	0.182593	0.740022	1.12652	-0.0205239	-0.0775045	1.36408	-0.159728	0	0	1.11216	-0.173268	0.0656522	1.31645	-0.0984444	0	0	-0.834889	0.124412	0.0771572	1.19668	-0.780032	0.707623	1.04466	0.436962	0	0	1.15663	-0.67696	0.619981	1.04176	0.556476	0	0
15.15	0.455463	1.34849	1.18404	0.656847	0.181026	0.735716	1.14206	-0.020294	-0.0761333	1.37703	-0.158093	0	0	1.12806	-0.173978	0.0673979	1.3307	-0.09574	0	0	-0.84038	0.123288	0.0806207	1.20934	-0.782909	0.713592	1.05221	0.442478	0	0	1.17035	-0.674676	0.625837	1.04568	0.554725	0	0
15.16	0.449102	1.34393	1.18924	0.656788	0.179578	0.731375	1.15822	-0.0201598	-0.0745959	1.38992	-0.156433	0	0	1.14459	-0.174782	0.0689392	1.34502	-0.0929839	0	0	-0.84457	0.121922	0.0834473	1.22151	-0.784872	0.719081	1.05873	0.450491	0	0	1.18296	-0.67292	0.630996	1.05036	0.554548	0	0
15.17	0.439246	1.33785	1.19783	0.656754	0.178289	0.726934	1.17574	-0.019571	-0.0729003	1.40183	-0.1543	0	0	1.16294	-0.175216	0.070821	1.35963	-0.0899654	0	0	-0.846146	0.120244	0.0858311	1.2325	-0.786239	0.723864	1.06443	0.46239	0	0	1.19409	-0.670889	0.635569	1.05509	0.556052	0	0
15.18	0.438253	1.33755	1.19784	0.656756	0.176828	0.723093	1.18611	-0.0184708	-0.0714607	1.41213	-0.152799	0	0	1.17443	-0.175091	0.0730775	1.37347	-0.0881737	0	0	-0.853509	0.117603	0.0890204	1.2458	-0.78805	0.730256	1.06765	0.470107	0	0	1.21048	-0.666555	0.645196	1.05587	0.556388	0	0
15.19	0.431527	1.33498	1.20313	0.656808	0.175556	0.719093	1.19981	-0.0186125	-0.0696771	1.42444	-0.145015	0	0	1.18814	-0.17535	0.0742812	1.38694	-0.0824129	0	0	-0.857678	0.114018	0.0939781	1.24729	-0.788987	0.716496	1.07392	0.509488	0	0	1.2267	-0.659001	0.65449	1.05588	0.555252	0	0
15.2	0.430127	1.33492	1.20315	0.656773	0.174238	0.715416	1.21094	-0.0206024	-0.0686202	1.43818	-0.146648	0	0	1.19863	-0.176549	0.0745928	1.39977	-0.0823301	0	0	-0.864708	0.111877	0.0962798	1.26326	-0.790269	0.727101	1.07851	0.503459	0	0	1.24025	-0.656092	0.660932	1.05957	0.549056	0	0
15.21	0.427881	1.33395	1.204	0.656743	0.17303	0.711719	1.22246	-0.0218175	-0.0680476	1.45077	-0.147404	0	0	1.20986	-0.177795	0.0749945	1.41236	-0.0814235	0	0	-0.870445	0.109871	0.098666	1.27737	-0.791671	0.734951	1.0848	0.500787	0	0	1.25266	-0.653389	0.666908	1.06487	0.542707	0	0
15.22	0.419702	1.32867	1.21068	0.656714	0.172013	0.70769	1.23787	-0.0213748	-0.0675693	1.46126	-0.14487	0	0	1.22582	-0.178419	0.0763239	1.42491	-0.0769177	0	0	-0.871186	0.107802	0.101111	1.28526	-0.792975	0.734071	1.09395	0.515839	0	0	1.26194	-0.65097	0.669968	1.07326	0.543245	0	0
15.23	0.417328	1.32489	1.21155	0.656717	0.170991	0.703915	1.24992	-0.0188206	-0.0675563	1.46881	-0.143119	0	0	1.23947	-0.179568	0.0785256	1.43696	-0.0747236	0	0	-0.87339	0.106277	0.102746	1.29774	-0.792809	0.740034	1.10063	0.525335	0	0	1.27079	-0.65005	0.672026	1.08175	0.553245	0	0
15.24	0.414851	1.32055	1.21256	0.656719	0.170009	0.700112	1.26293	-0.0173389	-0.0675777	1.47756	-0.142047	0	0	1.25381	-0.180789	0.0810791	1.44913	-0.0727657	0	0	-0.874342	0.105326	0.104485	1.30992	-0.792492	0.746281	1.10802	0.532403	0	0	1.27863	-0.648474	0.67273	1.08943	0.568044	0	0
15.25	0.41189	1.31616	1.21428	0.656694	0.169087	0.696375	1.27606	-0.0167411	-0.067297	1.48691	-0.141214	0	0	1.26792	-0.181597	0.0834871	1.46084	-0.0709477	0	0	-0.874555	0.105391	0.106372	1.3211	-0.791549	0.750836	1.11655	0.534796	0	0	1.28507	-0.645787	0.671811	1.09544	0.585184	0	0
15.26	0.40823	1.31182	1.21675	0.656655	0.168194	0.692763	1.28915	-0.0161856	-0.0664923	1.49617	-0.140471	0	0	1.2816	-0.18204	0.0855997	1.4719	-0.0691912	0	0	-0.874358	0.105896	0.108098	1.33109	-0.790284	0.752878	1.12538	0.533286	0	0	1.2907	-0.643247	0.670783	1.1012	0.600607	0	0
15.27	0.404526	1.30771	1.21969	0.656577	0.167362	0.689281	1.30182	-0.0162246	-0.0658223	1.50537	-0.139577	0	0	1.29475	-0.181891	0.0875956	1.48261	-0.0674421	0	0	-0.873907	0.106194	0.108868	1.3395	-0.789492	0.752659	1.13283	0.530862	0	0	1.29667	-0.64182	0.671291	1.10814	0.61152	0	0
15.28	0.401284	1.30403	1.22292	0.656441	0.166617	0.685927	1.31329	-0.0166199	-0.0649578	1.51397	-0.138298	0	0	1.30725	-0.18106	0.0894513	1.49311	-0.0657646	0	0	-0.872995	0.106779	0.108771	1.34712	-0.789635	0.751896	1.1367	0.529494	0	0	1.30201	-0.639726	0.671775	1.11428	0.618482	0	0
15.29	0.398951	1.3009	1.2254	0.656293	0.16593	0.682718	1.32382	-0.0169968	-0.0641672	1.52235	-0.136976	0	0	1.31885	-0.180177	0.0912213	1.50336	-0.0640187	0	0	-0.872596	0.10738	0.108434	1.35378	-0.790727	0.749616	1.13923	0.527595	0	0	1.30666	-0.637257	0.671216	1.1207	0.621867	0	0
15.3	0.397741	1.29837	1.22664	0.656144	0.165294	0.679638	1.33359	-0.0171677	-0.063455	1.53081	-0.135668	0	0	1.32965	-0.179506	0.0929772	1.51367	-0.0620487	0	0	-0.873992	0.107208	0.108349	1.35837	-0.793266	0.743339	1.1444	0.522331	0	0	1.31149	-0.635876	0.668871	1.1305	0.623588	0	0
15.31	0.40083	1.29847	1.22348	0.655994	0.164577	0.676859	1.34018	-0.0169196	-0.0628671	1.53892	-0.134719	0	0	1.33726	-0.179133	0.094921	1.52349	-0.060464	0	0	-0.877831	0.107295	0.109487	1.36404	-0.796619	0.739596	1.14872	0.517172	0	0	1.31795	-0.632998	0.667745	1.13652	0.631155	0	0
15.32	0.40459	1.29887	1.21931	0.655856	0.163916	0.67418	1.34614	-0.0163094	-0.0622776	1.5467	-0.133951	0	0	1.34411	-0.179138	0.0969306	1.53286	-0.059028	0	0	-0.880805	0.108804	0.111637	1.37003	-0.799907	0.738311	1.15281	0.51238	0	0	1.32336	-0.629955	0.666747	1.13848	0.645572	0	0
15.33	0.408714	1.29953	1.2144	0.655738	0.163292	0.6716	1.35166	-0.0152946	-0.0615553	1.55435	-0.133283	0	0	1.35042	-0.179521	0.0989142	1.54207	-0.0575265	0	0	-0.88312	0.111754	0.114601	1.37609	-0.802687	0.737678	1.15777	0.505998	0	0	1.32742	-0.626605	0.665237	1.13658	0.663511	0	0
15.34	0.412836	1.30045	1.20923	0.655613	0.162691	0.669148	1.35671	-0.0143895	-0.0611138	1.56153	-0.132941	0	0	1.35594	-0.180042	0.10081	1.55064	-0.056112	0	0	-0.885864	0.11436	0.116913	1.3818	-0.804811	0.736662	1.16396	0.499598	0	0	1.33061	-0.624691	0.663029	1.13599	0.673364	0	0
